<svg id="_44.svg" data-name="44.svg" xmlns="http://www.w3.org/2000/svg" width="49" height="31" viewBox="0 0 49 31">
  <defs>
    <style>
      .cls-1, .cls-3 {
        fill: #fff;
      }

      .cls-1 {
        stroke: #00629f;
        stroke-width: 1px;
      }

      .cls-1, .cls-2, .cls-3, .cls-4 {
        fill-rule: evenodd;
      }

      .cls-2 {
        fill: #00629f;
      }

      .cls-4 {
        fill: #ff8e19;
      }
    </style>
  </defs>
  <path id="Фигура_606_копия" data-name="Фигура 606 копия" class="cls-1" d="M1795,3525v30h48v-30h-48Z" transform="translate(-1794.5 -3524.5)"/>
  <path id="Фигура_606" data-name="Фигура 606" class="cls-2" d="M1840.95,3553.18v-26.22h-43.99v26.22h43.99Z" transform="translate(-1794.5 -3524.5)"/>
  <path id="Фигура_608" data-name="Фигура 608" class="cls-3" d="M1800.65,3544.13h4.39v1.31h-2.73l-0.02,1.22h2.72v1.26h-2.73l0.01,1.22h2.7v1.31h-4.34v-6.32h0Zm5.5-.53h1.6v6.85h-1.6v-6.85h0Zm7.1,6.33a3.382,3.382,0,0,1-2.11.69,2.281,2.281,0,0,1-2.44-2.37,2.508,2.508,0,0,1,2.49-2.57c1.77,0,2.32,1.24,2.32,2.83h-3.21a0.977,0.977,0,0,0,1.11.95,2.1,2.1,0,0,0,1.31-.45l0.53,0.92h0Zm-1.18-2.36a0.786,0.786,0,0,0-.76-0.9,1.094,1.094,0,0,0-.99.9h1.75Zm6.29,2.57a3.594,3.594,0,0,1-1.7.48,2.284,2.284,0,0,1-2.53-2.36,2.454,2.454,0,0,1,2.63-2.58,3.324,3.324,0,0,1,1.58.4l-0.52,1.05a1.849,1.849,0,0,0-.75-0.19,1.215,1.215,0,0,0-1.34,1.24,1.18,1.18,0,0,0,1.2,1.18,1.974,1.974,0,0,0,.86-0.27l0.57,1.05h0Zm0.59-4.29h0.73l-0.01-1.57h1.55l-0.04,1.57h1.31l-0.02,1.15h-1.32c0,0.64-.04,1.31-0.04,1.71s0.1,0.59.46,0.59a1.118,1.118,0,0,0,.58-0.22l0.35,1.08a3.184,3.184,0,0,1-1.58.46c-1.29,0-1.36-.82-1.36-1.88,0-.56.05-1.13,0.05-1.74h-0.69l0.03-1.15h0Zm4.36,0h1.6v0.64h0.02a1.323,1.323,0,0,1,1.18-.77,2.957,2.957,0,0,1,.52.05l-0.21,1.57a2.126,2.126,0,0,0-.57-0.09,1.149,1.149,0,0,0-.95.54l-0.02,2.66h-1.6l0.03-4.6h0Zm6.22-.17a2.473,2.473,0,1,1-2.59,2.47,2.359,2.359,0,0,1,2.59-2.47h0Zm0,3.73a1.3,1.3,0,1,0-.99-1.26,1.065,1.065,0,0,0,.99,1.26h0Zm3.46-3.56h1.6v0.5a2.269,2.269,0,0,1,1.5-.67c0.99,0,1.52.54,1.52,1.8,0,0.94-.01,1.96-0.02,2.97h-1.6c0.01-.88.02-1.78,0.02-2.73a0.543,0.543,0,0,0-.58-0.67,1.528,1.528,0,0,0-.84.42v2.98h-1.63l0.03-4.6h0Zm-19.18-9.49,2.02-6.63h1.8l-2.02,6.63h-1.8Zm-0.81-6.62-1.62,2.8a6.819,6.819,0,0,0-.77,1.57h-0.03c0.03-.58-0.05-1.31-0.06-1.72l-0.18-2.65h-3.03l-0.03.17a1.258,1.258,0,0,1,1.37,1.19l0.59,5.26h1.87l3.77-6.62H1813Zm14.03,6.62-0.05-.99h-2.25l-0.46.99h-1.96l3.55-6.61h2.4l0.6,6.61h-1.83Zm-0.21-3.91a13.511,13.511,0,0,1,0-1.56h-0.03c-0.11.33-.58,1.32-0.79,1.81l-0.67,1.45h1.58l-0.09-1.7h0Zm-7.29,4.1a5.1,5.1,0,0,1-2.72-.76l0.85-1.31a3.386,3.386,0,0,0,1.95.65,0.836,0.836,0,0,0,.79-0.38c0.25-.43-0.06-0.66-0.76-1.06l-0.35-.22c-1.05-.71-1.5-1.38-1.01-2.56a2.513,2.513,0,0,1,2.52-1.32,4.009,4.009,0,0,1,2.34.8l-0.98,1.15a2.263,2.263,0,0,0-1.4-.61,0.84,0.84,0,0,0-.77.35c-0.19.37,0.06,0.62,0.61,0.96l0.41,0.26c1.27,0.79,1.57,1.63,1.25,2.41a2.6,2.6,0,0,1-2.73,1.64h0Z" transform="translate(-1794.5 -3524.5)"/>
  <path id="Фигура_609" data-name="Фигура 609" class="cls-4" d="M1809.12,3542.08a32.406,32.406,0,0,1,19.92-1.98l0.1-2.17c-9.17-.99-15.75,1.89-20.02,3.93v0.22h0Z" transform="translate(-1794.5 -3524.5)"/>
</svg>
