<svg id="_22.svg" data-name="22.svg" xmlns="http://www.w3.org/2000/svg" width="48" height="30" viewBox="0 0 48 30">
  <defs>
    <style>
      .cls-1 {
        fill: #009ddd;
      }

      .cls-1, .cls-2, .cls-3 {
        fill-rule: evenodd;
      }

      .cls-2 {
        fill: #cb2026;
      }

      .cls-3 {
        fill: #fff;
      }
    </style>
  </defs>
  <path id="Фигура_588" data-name="Фигура 588" class="cls-1" d="M1624.85,3554.68l-0.76-.02-0.76-.06-0.74-.09-0.73-.14-0.72-.16-0.7-.2-0.69-.24-0.68-.26-0.66-.3-0.64-.33-0.62-.36-0.6-.38-0.58-.42-0.56-.44-0.54-.46-0.52-.5-0.5-.51-0.46-.55-0.44-.56-0.42-.58-0.38-.6-0.36-.62-0.33-.64-0.3-.66-0.26-.68-0.24-.69-0.2-.71-0.16-.71-0.13-.74-0.1-.74-0.05-.75-0.02-.77,0.02-.76,0.05-.75,0.1-.74,0.13-.73,0.16-.71,0.2-.7,0.24-.7,0.26-.67,0.3-.65,0.33-.64,0.36-.62,0.38-.6,0.42-.58,0.44-.56,0.46-.54,0.5-.52,0.52-.49,0.54-.46,0.56-.44,0.58-.42,0.6-.38,0.62-.36,0.64-.32,0.66-.3,0.68-.27,0.69-.23,0.7-.2,0.72-.17,0.73-.13,0.74-.09,0.76-.06,0.76-.02,0.76,0.02,0.76,0.06,0.74,0.09,0.73,0.13,0.72,0.17,0.7,0.2,0.69,0.23,0.67,0.27,0.66,0.3,0.63,0.32,0.62,0.36,0.6,0.38,0.58,0.42,0.56,0.44,0.54,0.46,0.51,0.49,0.49,0.52,0.47,0.54,0.44,0.56,0.41,0.58,0.38,0.6,0.36,0.62,0.33,0.64,0.29,0.65,0.27,0.67,0.23,0.7,0.2,0.7,0.16,0.71,0.13,0.73,0.1,0.74,0.05,0.75,0.02,0.76-0.02.77-0.05.75-0.1.74-0.13.74-0.16.71-0.2.71-0.23.69-0.27.68-0.29.66-0.33.64-0.36.62-0.38.6-0.41.58-0.44.56-0.47.55-0.49.51-0.51.5-0.54.46-0.56.44-0.58.42-0.6.38-0.62.36-0.63.33-0.66.3-0.67.26-0.69.24-0.7.2-0.72.16-0.73.14-0.74.09-0.76.06-0.76.02h0Zm11.66-23.99h-7.88v-0.81h7.2l0.68,0.81h0Zm1.18,1.79h-9.06v-0.8h8.58l0.48,0.8h0Zm0.88,1.79h-9.94v-0.81h9.59l0.35,0.81h0Zm0.6,1.79h-10.54v-0.8h10.29l0.25,0.8h0Zm-0.35,8.66H1628.6v-0.81h10.47l-0.25.81h0Zm-0.75,1.79h-9.47v-0.8h9.84l-0.37.8h0Zm-1.06,1.79h-8.41v-0.81h8.91l-0.5.81h0Zm-1.46,1.79h-6.95v-0.81h7.65l-0.7.81h0Zm3.98-12.24h-10.9v-0.81h10.74l0.16,0.81h0Zm-6.64,5.08h-4.16v-0.8h4.01l0.15,0.8h0Zm-0.33-1.78h-3.83v-0.81h3.68l0.15,0.81h0Zm7.24-.81h-1.08v0.81h1.03l0.05-.81h0Z" transform="translate(-1610 -3525)"/>
  <path id="Фигура_589" data-name="Фигура 589" class="cls-2" d="M1643.2,3555l-0.76-.02-0.75-.06-0.74-.09-0.72-.13-0.72-.17-0.7-.2-0.68-.23-0.67-.27-0.66-.3-0.63-.32-0.62-.36-0.6-.39-0.57-.41-0.56-.44-0.54-.47-0.51-.49-0.49-.52-0.46-.54-0.44-.56-0.41-.58-0.38-.61-0.35-.62-0.33-.64-0.3-.66-0.26-.67-0.23-.7-0.2-.7-0.16-.72-0.13-.73-0.1-.74-0.05-.76-0.02-.77,0.02-.76,0.05-.75,0.1-.74,0.13-.72,0.16-.72,0.2-.7,0.23-.69,0.26-.67,0.3-.66,0.33-.64,0.35-.61,0.38-.61,0.41-.58,0.44-.55,0.46-.55,0.49-.51,0.51-.49,0.54-.47,0.56-.44,0.57-.41,0.6-.39,0.62-.35,0.63-.33,0.66-.3,0.67-.26,0.68-.24,0.7-.2,0.72-.16,0.72-.14,0.74-.09,0.75-.06,0.76-.02,0.76,0.02,0.76,0.06,0.73,0.09,0.74,0.14,0.71,0.16,0.7,0.2,0.69,0.24,0.67,0.26,0.66,0.3,0.64,0.33,0.61,0.35,0.61,0.39,0.58,0.41,0.55,0.44,0.54,0.47,0.51,0.49,0.5,0.51,0.46,0.55,0.44,0.55,0.41,0.58,0.39,0.61,0.36,0.61,0.32,0.64,0.3,0.66,0.26,0.67,0.24,0.69,0.2,0.7,0.16,0.72,0.13,0.72,0.1,0.74,0.05,0.75,0.02,0.76-0.02.77-0.05.76-0.1.74-0.13.73-0.16.72-0.2.7-0.24.7-0.26.67-0.3.66-0.32.64-0.36.62-0.39.61-0.41.58-0.44.56-0.46.54-0.5.52-0.51.49-0.54.47-0.55.44-0.58.41-0.61.39-0.61.36-0.64.32-0.66.3-0.67.27-0.69.23-0.7.2-0.71.17-0.74.13-0.73.09-0.76.06-0.76.02h0Z" transform="translate(-1610 -3525)"/>
  <path id="Фигура_590" data-name="Фигура 590" class="cls-1" d="M1636.29,3531.09h-7.79v-0.8h7.12l0.67,0.8h0Zm1.17,1.79h-8.96v-0.8h8.49l0.47,0.8h0Zm0.87,1.78h-9.83v-0.8h9.48l0.35,0.8h0Zm0.6,1.79H1628.5v-0.81h10.18l0.25,0.81h0Zm-0.35,8.63h-10.11v-0.81h10.36l-0.25.81h0Zm-0.75,1.78h-9.36v-0.8h9.74l-0.38.8h0Zm-1.04,1.78h-8.32v-0.8h8.82l-0.5.8h0Zm-1.45,1.79h-6.87v-0.81h7.57l-0.7.81h0Zm3.94-12.2H1628.5v-0.81h10.63l0.15,0.81h0Zm-6.57,5.06h-4.12v-0.8h3.97l0.15,0.8h0Zm-0.33-1.78h-3.79v-0.8h3.64l0.15,0.8h0Zm7.17-.8h-1.07v0.8h1.02l0.05-.8h0Z" transform="translate(-1610 -3525)"/>
  <path id="Фигура_595" data-name="Фигура 595" class="cls-3" d="M1639.48,3539.8h-0.08l-0.08-.01-0.07-.01-0.08-.01-0.07-.01-0.07-.02-0.08-.01-0.08-.01-0.08-.01-0.09-.01-0.1-.01h-0.36l-0.15.01-0.16.02-0.12.01-0.11.03-0.1.03-0.09.04-0.08.04-0.07.05-0.06.06-0.05.06-0.04.07-0.02.07-0.01.07v0.08l0.01,0.08,0.03,0.08,0.05,0.08,0.05,0.08,0.12,0.1,0.14,0.09,0.16,0.08,0.17,0.06,0.18,0.06,0.19,0.07,0.19,0.07,0.19,0.08,0.17,0.1,0.17,0.12,0.14,0.16,0.12,0.18,0.09,0.23,0.07,0.27,0.02,0.32-0.02.37-0.05.28-0.07.26-0.09.22-0.12.2-0.14.18-0.15.15-0.16.13-0.18.11-0.18.1-0.2.07-0.19.06-0.2.05-0.2.03-0.19.02-0.19.02h-0.65l-0.21-.01h-0.19l-0.17-.01-0.15-.01-0.15-.01-0.13-.02-0.12-.01-0.11-.03-0.11-.02-0.1-.03-0.1-.03-0.09-.02-0.1-.04-0.1-.04,0.25-1.32,0.05,0.02,0.07,0.02,0.09,0.02,0.09,0.02,0.11,0.02,0.12,0.03,0.13,0.03,0.13,0.02,0.15,0.03,0.15,0.02,0.16,0.01,0.16,0.02,0.17,0.01h0.34l0.17-.01,0.16-.03,0.14-.04,0.1-.07,0.08-.07,0.06-.09,0.04-.09,0.04-.1,0.02-.09,0.01-.09v-0.09l-0.02-.08-0.03-.07-0.05-.06-0.05-.06-0.07-.06-0.08-.05-0.08-.04-0.1-.05-0.1-.04-0.1-.05-0.11-.04-0.11-.04-0.11-.05-0.12-.05-0.11-.05-0.11-.06-0.12-.06-0.1-.07-0.11-.07-0.1-.08-0.09-.09-0.08-.09-0.08-.11-0.07-.12-0.05-.13-0.05-.14-0.04-.15-0.02-.17v-0.19l0.01-.19,0.01-.12,0.02-.12,0.02-.12,0.02-.1,0.03-.11,0.02-.1,0.04-.1,0.04-.1,0.04-.08,0.04-.09,0.06-.08,0.05-.08,0.06-.08,0.07-.07,0.07-.07,0.07-.06,0.08-.06,0.09-.05,0.09-.05,0.1-.05,0.1-.04,0.11-.05,0.11-.03,0.12-.03,0.13-.03,0.13-.03,0.14-.02,0.14-.02,0.16-.01,0.16-.01h0.92l0.16,0.01,0.14,0.01,0.13,0.01,0.11,0.01,0.1,0.01,0.1,0.01,0.08,0.02h0.07l0.07,0.02h0.05l0.06,0.01,0.05,0.01,0.04,0.01Zm1.32-2.8h1.62l-0.25,1.47h1l-0.23,1.33-1.02-.02-0.53,3.34-0.01.07v0.07l0.01,0.05,0.01,0.05,0.03,0.04,0.03,0.05,0.03,0.03,0.04,0.02,0.05,0.03,0.05,0.02,0.06,0.02h0.05l0.07,0.02h0.06l0.07,0.01h0.2l0.11-.01,0.1-.02,0.09-.02,0.07-.02,0.05-.02,0.04-.02h0.01l-0.17,1.14-0.04.03-0.04.02-0.05.02-0.04.02-0.04.02-0.05.01-0.05.02-0.06.02-0.05.01-0.06.02-0.07.01-0.08.01-0.07.01-0.08.02-0.09.01-0.1.01h-0.44l-0.23-.02-0.2-.02-0.18-.03-0.16-.05-0.13-.05-0.11-.06-0.1-.08-0.07-.07-0.06-.09-0.05-.1-0.03-.1-0.01-.12-0.01-.12,0.01-.14,0.01-.14,0.02-.15Zm-9.84,5.09-0.02.1v0.11l0.01,0.11,0.02,0.11,0.03,0.11,0.05,0.12,0.06,0.1,0.07,0.11,0.07,0.1,0.09,0.1,0.1,0.08,0.1,0.08,0.1,0.07,0.12,0.05,0.12,0.04,0.12,0.03,0.14,0.02,0.15,0.02,0.15,0.02,0.15,0.01h0.3l0.16-.01,0.15-.01,0.16-.02,0.16-.03,0.16-.04,0.16-.06,0.16-.06,0.17-.08,0.16-.09,0.17-.1-0.25,1.49-0.09.05-0.09.04-0.09.04-0.08.04-0.09.03-0.09.02-0.09.03-0.11.02-0.1.01-0.11.01-0.13.01-0.13.01-0.15.01h-0.67l-0.14-.01-0.14-.01-0.15-.01-0.15-.02-0.14-.03-0.15-.03-0.14-.04-0.14-.04-0.14-.05-0.14-.05-0.14-.07-0.13-.07-0.13-.07-0.12-.09-0.12-.09-0.11-.1-0.11-.11-0.11-.11-0.09-.13-0.09-.14-0.08-.14-0.07-.16-0.07-.16-0.05-.18-0.05-.18-0.03-.19-0.03-.21-0.01-.22v-0.23l0.01-.24,0.02-.25,0.01-.09,0.01-.1,0.02-.1,0.02-.11,0.02-.11,0.02-.12,0.04-.12,0.03-.13,0.04-.13,0.04-.12,0.06-.13,0.05-.13,0.07-.13,0.06-.13,0.08-.13,0.08-.13,0.09-.12,0.1-.12,0.11-.12,0.11-.11,0.12-.11,0.14-.1,0.14-.09,0.15-.09,0.16-.07,0.17-.07,0.19-.07,0.19-.05,0.2-.04,0.22-.03,0.23-.02h0.46l0.12,0.01,0.12,0.02,0.11,0.01,0.12,0.03,0.12,0.03,0.12,0.03,0.11,0.04,0.12,0.04,0.11,0.05,0.11,0.06,0.11,0.07,0.1,0.07,0.1,0.09,0.1,0.08,0.08,0.1,0.09,0.1,0.08,0.12,0.06,0.12,0.07,0.14,0.05,0.14,0.05,0.16,0.04,0.16,0.03,0.17,0.02,0.19,0.01,0.2v0.21l-0.01.22-0.02.23-0.04.25-0.05.26-0.06.37h-4.18l0.24-1.17h2.51l0.02-.16v-0.14l-0.01-.14-0.03-.13-0.03-.11-0.04-.1-0.05-.1-0.06-.08-0.07-.08-0.08-.06-0.08-.05-0.08-.04-0.09-.03-0.1-.03-0.1-.01-0.11-.01h-0.11l-0.1.02-0.11.02-0.1.03-0.09.05-0.09.06-0.08.06-0.08.07-0.07.08-0.06.09-0.07.1-0.05.1-0.05.11-0.04.12-0.03.12-0.03.13Zm-2.23,1.46-0.23,1.34h-1.46l0.02-.12,0.01-.13,0.02-.11,0.02-.11,0.01-.09,0.02-.07,0.01-.05,0.02-.03-0.08.09-0.1.09-0.1.09-0.13.08-0.13.08-0.15.08-0.15.07-0.16.06-0.16.05-0.17.05-0.17.03-0.17.03-0.17.01-0.16.01-0.16-.02-0.16-.02-0.21-.05-0.18-.07-0.16-.08-0.15-.09-0.13-.09-0.11-.11-0.09-.12-0.08-.12-0.07-.13-0.06-.13-0.04-.13-0.04-.14-0.02-.13-0.02-.14-0.01-.14v-0.13l0.02-.23,0.03-.22,0.05-.22,0.08-.2,0.09-.19,0.11-.17,0.12-.17,0.14-.15,0.14-.14,0.16-.12,0.17-.11,0.18-.1,0.18-.08,0.19-.07,0.2-.05,0.19-.04h0.04l0.04-.01,0.06-.01h0.07l0.08-.01,0.09-.01,0.1-.01,0.09-.01,0.1-.01,0.1-.01,0.1-.01,0.09-.01h0.08l0.08-.01h0.27l0.07,0.01h0.37l0.04,0.01h0.12l0.01-.04,0.03-.1,0.02-.12v-0.1l-0.01-.08-0.01-.07-0.02-.07-0.03-.06-0.03-.06-0.04-.05-0.04-.05-0.05-.05-0.05-.04-0.05-.04-0.06-.03-0.06-.03-0.07-.02-0.07-.02-0.06-.01-0.07-.01h-0.34l-0.18.01-0.19.01-0.18.01-0.19.02-0.18.02-0.18.02-0.18.03-0.16.02-0.15.03-0.14.04-0.13.03-0.1.03-0.09.04-0.06.03,0.42-1.42,0.12-.06,0.13-.05,0.13-.05,0.13-.04,0.14-.03,0.15-.02,0.15-.02,0.16-.02,0.16-.01,0.17-.01h0.91l0.2,0.01,0.16,0.02,0.17,0.02,0.19,0.05,0.18,0.05,0.18,0.07,0.18,0.09,0.17,0.1,0.16,0.12,0.15,0.13,0.13,0.15,0.11,0.16,0.09,0.18,0.07,0.2,0.03,0.21,0.01,0.23-0.03.25Zm-1.39-1.57-0.01-.04-0.02-.02-0.04-.02-0.05-.01-0.07-.01-0.08-.01h-0.17l-0.09.01-0.1.01-0.09.02-0.09.01-0.09.02-0.09.02-0.07.02-0.06.02-0.04.01-0.05.01-0.06.03-0.06.02-0.07.03-0.08.04-0.07.05-0.08.04-0.08.06-0.07.07-0.07.06-0.06.08-0.05.08-0.04.09-0.04.09-0.02.1v0.21l0.02,0.16,0.05,0.12,0.07,0.1,0.09,0.06,0.1,0.04,0.1,0.02h0.27l0.16-.02,0.15-.03,0.13-.03,0.12-.04,0.11-.06,0.09-.05,0.09-.07,0.08-.06,0.06-.07,0.06-.07,0.04-.07,0.05-.07,0.03-.07,0.02-.06,0.02-.07,0.02-.09,0.02-.1,0.02-.1,0.02-.1,0.02-.1,0.01-.09,0.02-.09Zm-10.77,2.91H1615l1.32-7.89h2.74l0.27,4.7,1.87-4.7h2.84l-1.33,7.89h-1.57l0.99-5.91h-0.06l-2.34,5.91h-1.77l-0.01-.25-0.04-.65-0.05-.93-0.06-1.07-0.06-1.08-0.05-.95-0.04-.69-0.02-.29h-0.06Zm26.31,0h1.64l0.56-3.41,0.02-.13,0.03-.13,0.03-.13,0.04-.12,0.05-.12,0.05-.12,0.07-.11,0.08-.1,0.09-.09,0.1-.09,0.13-.07,0.14-.07,0.16-.05,0.18-.05,0.2-.02,0.22-.02h0.02l0.03,0.01h0.06l0.03,0.01h0.05v-0.02l0.02-.07,0.02-.11,0.03-.14,0.04-.15,0.05-.17,0.05-.17,0.06-.16,0.04-.12,0.06-.11,0.05-.11,0.05-.11,0.05-.09,0.04-.07,0.03-.04,0.01-.02h-0.01l-0.02-.01h-0.03l-0.04-.01-0.04-.01h-0.05l-0.04-.01h-0.04l-0.18.01-0.16.02-0.15.04-0.13.03-0.13.05-0.12.06-0.11.06-0.1.08-0.1.08-0.1.08-0.08.1-0.09.1-0.08.1-0.08.11-0.09.12-0.08.12,0.19-1.07-1.64-.02-1.08,6.44h0Zm7.09-6.51h0.18l0.18,0.02,0.17,0.01,0.17,0.03,0.16,0.03,0.16,0.04,0.15,0.05,0.14,0.05,0.15,0.07,0.13,0.06,0.13,0.07,0.12,0.08,0.12,0.09,0.12,0.09,0.1,0.1,0.1,0.11,0.1,0.1,0.09,0.12,0.08,0.12,0.07,0.12,0.08,0.13,0.06,0.14,0.06,0.14,0.04,0.15,0.05,0.14,0.04,0.16,0.03,0.16,0.02,0.16,0.02,0.17,0.01,0.17v0.35l-0.02.21-0.02.21-0.03.2-0.03.19-0.05.18-0.05.18-0.05.17-0.06.16-0.08.16-0.07.15-0.08.14-0.09.14-0.09.13-0.1.12-0.11.11-0.1.11-0.12.1-0.11.1-0.13.08-0.12.08-0.14.08-0.13.07-0.14.06-0.15.05-0.14.05-0.15.05-0.16.03-0.15.03-0.16.02-0.16.02-0.17.01h-0.33l-0.16-.01-0.16-.02-0.16-.02-0.15-.03-0.15-.04-0.15-.04-0.14-.05-0.14-.05-0.13-.07-0.13-.06-0.13-.08-0.12-.08-0.11-.09-0.11-.09-0.11-.1-0.09-.1-0.1-.12-0.08-.12-0.09-.12-0.07-.13-0.07-.14-0.06-.14-0.06-.15-0.05-.15-0.04-.17-0.04-.16-0.03-.18-0.02-.18-0.01-.18v-0.39l0.01-.2,0.02-.19,0.03-.19,0.04-.18,0.04-.18,0.05-.17,0.05-.16,0.06-.16,0.06-.16,0.08-.15,0.08-.13,0.08-.14,0.09-.13,0.1-.12,0.1-.12,0.1-.11,0.11-.1,0.12-.1,0.12-.09,0.13-.09,0.13-.07,0.14-.08,0.14-.06,0.14-.06,0.15-.05,0.15-.05,0.16-.03,0.16-.04,0.16-.02,0.17-.02,0.18-.01h0.17Zm-1.29,3.08-0.02.23-0.01.22v0.2l0.01,0.18,0.02,0.17,0.04,0.15,0.04,0.13,0.06,0.12,0.07,0.11,0.08,0.09,0.08,0.07,0.09,0.06,0.1,0.05,0.12,0.03,0.11,0.02h0.26l0.14-.02,0.12-.03,0.12-.04,0.12-.06,0.1-.08,0.11-.08,0.09-.11,0.09-.12,0.08-.13,0.07-.15,0.07-.16,0.06-.19,0.05-.19,0.04-.22,0.04-.23,0.02-.18,0.01-.17v-0.17l-0.01-.16-0.02-.14-0.04-.14-0.04-.13-0.05-.13-0.07-.1-0.07-.1-0.08-.08-0.1-.07-0.1-.05-0.11-.04-0.12-.02h-0.14l-0.16.02-0.15.03-0.15.05-0.13.06-0.12.08-0.11.09-0.1.11-0.09.12-0.09.12-0.07.14-0.06.13-0.06.14-0.04.15-0.04.14-0.03.14Z" transform="translate(-1610 -3525)"/>
  <path id="Фигура_595_копия" data-name="Фигура 595 копия" class="cls-1" d="M1627.34,3541.98l-0.01-.04-0.02-.02-0.04-.02-0.05-.01-0.07-.01-0.08-.01h-0.17l-0.09.01-0.1.01-0.09.02-0.09.01-0.09.02-0.09.02-0.07.02-0.06.02-0.04.01-0.05.01-0.06.03-0.06.02-0.07.03-0.08.04-0.07.05-0.08.04-0.08.06-0.07.07-0.07.06-0.06.08-0.05.08-0.04.09-0.04.09-0.02.1v0.21l0.02,0.16,0.05,0.12,0.07,0.1,0.09,0.06,0.1,0.04,0.1,0.02h0.27l0.16-.02,0.15-.03,0.13-.03,0.12-.04,0.11-.06,0.09-.05,0.09-.07,0.08-.06,0.06-.07,0.06-.07,0.04-.07,0.05-.07,0.03-.07,0.02-.06,0.02-.07,0.02-.09,0.02-.1,0.02-.1,0.02-.1,0.02-.1,0.01-.09,0.02-.09Z" transform="translate(-1610 -3525)"/>
  <path id="Фигура_595_копия_2" data-name="Фигура 595 копия 2" class="cls-2" d="M1648.68,3541.46l-0.02.23-0.01.22v0.2l0.01,0.18,0.02,0.17,0.04,0.15,0.04,0.13,0.06,0.12,0.07,0.11,0.08,0.09,0.08,0.07,0.09,0.06,0.1,0.05,0.12,0.03,0.11,0.02h0.26l0.14-.02,0.12-.03,0.12-.04,0.12-.06,0.1-.08,0.11-.08,0.09-.11,0.09-.12,0.08-.13,0.07-.15,0.07-.16,0.06-.19,0.05-.19,0.04-.22,0.04-.23,0.02-.18,0.01-.17v-0.17l-0.01-.16-0.02-.14-0.04-.14-0.04-.13-0.05-.13-0.07-.1-0.07-.1-0.08-.08-0.1-.07-0.1-.05-0.11-.04-0.12-.02h-0.14l-0.16.02-0.15.03-0.15.05-0.13.06-0.12.08-0.11.09-0.1.11-0.09.12-0.09.12-0.07.14-0.06.13-0.06.14-0.04.15-0.04.14-0.03.14Z" transform="translate(-1610 -3525)"/>
</svg>
