<svg id="_33.svg" data-name="33.svg" xmlns="http://www.w3.org/2000/svg" width="58" height="19" viewBox="0 0 58 19">
  <defs>
    <style>
      .cls-1 {
        fill: #283486;
      }

      .cls-1, .cls-2 {
        fill-rule: evenodd;
      }

      .cls-2 {
        fill: #ff8e19;
      }
    </style>
  </defs>
  <path id="Фигура_602" data-name="Фигура 602" class="cls-1" d="M1738.55,3559.49l5.44-18.09h4.84l-5.43,18.09h-4.85Zm-2.16-18.09-4.36,7.67a18.554,18.554,0,0,0-2.07,4.29h-0.07c0.08-1.61-.14-3.58-0.16-4.7l-0.48-7.26h-8.16l-0.09.49a3.387,3.387,0,0,1,3.68,3.24l1.59,14.36h5.02l10.16-18.09h-5.06Zm37.68,18.09-0.13-2.69-6.05-.01-1.24,2.7h-5.26l9.54-18.06h6.45l1.62,18.06h-4.93Zm-0.55-10.67a40.247,40.247,0,0,1-.01-4.25h-0.08c-0.29.89-1.56,3.59-2.11,4.92l-1.81,3.96h4.25l-0.24-4.63h0Zm-19.6,11.18a13.509,13.509,0,0,1-7.31-2.07l2.3-3.56c1.46,0.82,2.6,1.77,5.23,1.77a2.228,2.228,0,0,0,2.12-1.03c0.68-1.18-.15-1.81-2.05-2.9l-0.93-.61c-2.81-1.94-4.02-3.78-2.7-6.99,0.85-2.05,3.08-3.61,6.75-3.61a10.777,10.777,0,0,1,6.3,2.19l-2.65,3.14a5.873,5.873,0,0,0-3.76-1.66,2.226,2.226,0,0,0-2.06.94c-0.51,1.01.16,1.7,1.63,2.62l1.12,0.71c3.4,2.18,4.21,4.45,3.36,6.58-1.47,3.66-4.34,4.48-7.35,4.48h0Z" transform="translate(-1721 -3541)"/>
  <path id="Фигура_603" data-name="Фигура 603" class="cls-2" d="M1729.64,3547.33l-0.44-6.02H1721v0.64C1724.77,3541.59,1729.64,3547.33,1729.64,3547.33Z" transform="translate(-1721 -3541)"/>
</svg>
