<svg xmlns="http://www.w3.org/2000/svg" xmlns:xlink="http://www.w3.org/1999/xlink" width="25" height="24" viewBox="0 0 25 24"><defs><path id="km2xa" d="M295.88 32.98V39c0 .54-.42 1-.97 1h-12.92a1 1 0 0 1-1-1V22.2c0-.55.45-.98 1-.98h2.43v1.88c0 .88.71 1.58 1.61 1.58h4.84c.9 0 1.63-.7 1.63-1.58V21.2h2.4c.56 0 .98.43.98.97v3.3l-3.14 4.45-8.39.02c-.4 0-.72.32-.72.72 0 .4.32.72.72.72h7.35l-1.34 1.9h-6c-.4 0-.73.32-.73.71 0 .4.32.72.72.72h4.97l-.05.08a1.2 1.2 0 0 0-.22.81l.12 1.42c.03.36.22.7.53.9a1.25 1.25 0 0 0 1.05.18l1.39-.38c.28-.07.52-.24.7-.47zm-12.25-5.65c0 .4.32.72.72.72h8.2c.4 0 .72-.32.72-.72 0-.4-.33-.72-.73-.72h-8.19c-.4 0-.72.33-.72.72zm1.75-4.26v-2.74c0-.36.3-.66.66-.66h.7c.01-.92.77-1.67 1.7-1.67.95 0 1.7.75 1.71 1.67h.73c.36 0 .66.3.66.66v2.74c0 .37-.3.66-.66.66h-4.84a.66.66 0 0 1-.66-.66zm2.3-3.4h1.53a.75.75 0 0 0-.76-.74.75.75 0 0 0-.76.74zm14.24 3.1l-8.58 12.14-1.98-1.37 8.58-12.14a.47.47 0 0 1 .65-.11l1.21.83c.1.07.17.18.2.3.02.12-.01.25-.08.35zm-11.86 12.57l.52-.74 1.98 1.36-.52.75c-.04.05-.1.09-.16.1l-1.4.38a.24.24 0 0 1-.07.01.29.29 0 0 1-.16-.05.27.27 0 0 1-.12-.2l-.12-1.43c0-.06.01-.13.05-.18z"/></defs><g><g transform="translate(-279 -17)"><use fill="#f6f6f6" xlink:href="#km2xa"/></g></g></svg>