<svg xmlns="http://www.w3.org/2000/svg" xmlns:xlink="http://www.w3.org/1999/xlink" width="25" height="24" viewBox="0 0 25 24"><defs><path id="a" d="M1774.78 59.67c.3.3.3.8 0 1.1a.73.73 0 0 1-1.07 0l-6.26-6.37a8.28 8.28 0 0 1-5.04 1.7 8.5 8.5 0 0 1-8.41-8.55 8.5 8.5 0 0 1 8.41-8.55 8.5 8.5 0 0 1 8.42 8.55c0 2.25-.86 4.29-2.25 5.8zm-12.37-5.11c3.81 0 6.9-3.14 6.9-7 0-3.88-3.1-7.01-6.9-7.01-3.8 0-6.89 3.15-6.89 7 0 3.86 3.08 7 6.9 7z"/></defs><g transform="translate(-1752 -38)"><use fill="#6489c0" xlink:href="#a"/></g></svg>