<svg xmlns="http://www.w3.org/2000/svg" xmlns:xlink="http://www.w3.org/1999/xlink" width="30" height="30" viewBox="0 0 30 30"><defs><path id="n7vea" d="M703.71 69.37c.36.38.36.98 0 1.35a.9.9 0 0 1-1.32 0l-7.74-7.81A10.3 10.3 0 0 1 688.4 65 10.47 10.47 0 0 1 678 54.5c0-5.78 4.66-10.5 10.41-10.5s10.41 4.72 10.41 10.5c0 2.76-1.06 5.26-2.78 7.13zm-15.3-6.27a8.56 8.56 0 0 0 8.53-8.6c0-4.75-3.83-8.6-8.53-8.6a8.57 8.57 0 0 0-8.53 8.6c0 4.73 3.82 8.6 8.53 8.6z"/></defs><g><g transform="translate(-676 -43)"><use fill="#6489c0" xlink:href="#n7vea"/></g></g></svg>