<svg xmlns="http://www.w3.org/2000/svg" xmlns:xlink="http://www.w3.org/1999/xlink" width="28" height="27" viewBox="0 0 28 27"><defs><path id="a" d="M540 2991.5c0-6.9 5.6-12.5 12.5-12.5h1a12.5 12.5 0 1 1 0 25h-1c-6.9 0-12.5-5.6-12.5-12.5z"/><path id="b" d="M532 3010.1v-37.2h42v37.2zm22.5-6.2h1a12.5 12.5 0 1 0 0-25h-1a12.5 12.5 0 1 0 0 25z"/><path id="f" d="M559 2989.45h-3.95V2984l-7.5 5.99a1.86 1.86 0 0 0 0 2.6l7.5 6.4v-5.45H559"/><filter id="c" width="200%" height="200%" x="-50%" y="-50%"><feGaussianBlur in="SourceGraphic" result="FeGaussianBlur1018Out" stdDeviation="2.5 2.5"/></filter><mask id="d"><use fill="#fff" xlink:href="#a"/></mask><clipPath id="e"><use fill="#fff" xlink:href="#a"/></clipPath></defs><g transform="translate(-539 -2978)"><use fill="#fff" xlink:href="#a"/><use fill-opacity=".15" stroke="#000" stroke-opacity=".15" stroke-width="0" filter="url(#c)" mask="url(&quot;#d&quot;)" xlink:href="#b"/><use fill="#fff" fill-opacity="0" stroke="#e8e8e8" stroke-miterlimit="50" stroke-width="2" clip-path="url(&quot;#e&quot;)" xlink:href="#a"/></g><g transform="translate(-539 -2978)"><use fill="#6489c0" xlink:href="#f"/></g></svg>